Coordinates
version=1
nRows=11
nColumns=63
inDegrees=yes

Units are S.I. units (second, meters, Newtons, ...)
If the header above contains a line with 'inDegrees', this indicates whether rotational values are in degrees (yes) or radians (no).

endheader
time	pelvis_tilt	pelvis_list	pelvis_rotation	pelvis_tx	pelvis_ty	pelvis_tz	hip_flexion_r	hip_adduction_r	hip_rotation_r	knee_angle_r	knee_angle_r_beta	ankle_angle_r	subtalar_angle_r	mtp_angle_r	hip_flexion_l	hip_adduction_l	hip_rotation_l	knee_angle_l	knee_angle_l_beta	ankle_angle_l	subtalar_angle_l	mtp_angle_l	L5_S1_Flex_Ext	L5_S1_Lat_Bending	L5_S1_axial_rotation	L4_L5_Flex_Ext	L4_L5_Lat_Bending	L4_L5_axial_rotation	L3_L4_Flex_Ext	L3_L4_Lat_Bending	L3_L4_axial_rotation	L2_L3_Flex_Ext	L2_L3_Lat_Bending	L2_L3_axial_rotation	L1_L2_Flex_Ext	L1_L2_Lat_Bending	L1_L2_axial_rotation	L1_T12_Flex_Ext	L1_T12_Lat_Bending	L1_T12_axial_rotation	Abs_r3	Abs_r2	Abs_r1	Abs_t1	Abs_t2	neck_flexion	neck_bending	neck_rotation	arm_flex_r	arm_add_r	arm_rot_r	elbow_flex_r	pro_sup_r	wrist_flex_r	wrist_dev_r	arm_flex_l	arm_add_l	arm_rot_l	elbow_flex_l	pro_sup_l	wrist_flex_l	wrist_dev_l
      0.00000000	      3.33299662	     -8.07417058	     98.86965320	      0.23519527	      1.06715027	      0.33216846	     -6.96922610	      2.62610938	      1.78163892	      6.56575375	      0.11459402	     29.12004868	     -5.05372516	      0.00000000	     -9.91286838	     -3.08055529	      1.73999992	      0.18085695	      0.00315655	     29.81770828	      5.33840920	      0.00000000	     -0.04328453	      0.25944041	     -0.58538263	     -0.08038370	      0.34505575	     -0.62196905	     -0.07111215	      0.63080342	     -0.62196905	     -0.04946989	      0.63080342	     -0.51220980	     -0.04019401	      0.52905089	     -0.47562339	     -0.02473278	      0.40187320	     -0.43903697	     -0.30917707	      2.93484183	     -3.25572258	      0.00000000	      0.00000000	     23.61059989	      2.95652628	      5.17297287	     13.51796624	     -9.82744780	     72.94983990	     37.28514234	     35.18043714	      5.16486865	     12.33126027	      9.26470066	    -11.73175577	     55.38174183	     37.85278579	     87.56875862	     -2.13726378	     -6.94049543
      0.01666667	      3.43908240	     -7.96872176	     98.10671228	      0.23603623	      1.06682875	      0.33270025	     -6.93446256	      2.56494253	      1.62173710	      7.06004005	      0.12322094	     28.57017367	     -4.68271917	      0.00000000	    -10.31950306	     -3.06290259	      1.61794993	      0.19403664	      0.00338658	     28.95122140	      4.89943640	      0.00000000	     -0.04034124	      0.26065042	     -0.45883522	     -0.07491772	      0.34666505	     -0.48751242	     -0.06627663	      0.63374542	     -0.48751242	     -0.04610601	      0.63374542	     -0.40148082	     -0.03746088	      0.53151833	     -0.37280362	     -0.02305099	      0.40374750	     -0.34412642	     -0.28815347	      2.94852964	     -2.55190385	      0.00000000	      0.00000000	     23.14328262	      3.43635885	      4.69378672	     13.69115461	    -10.12554817	     72.00388138	     37.78304989	     35.97158675	      4.76258391	     10.62889442	     10.03656994	    -11.90639900	     56.34597273	     38.19289388	     87.35737698	     -1.49780844	     -5.96387759
      0.03333333	      3.45025571	     -8.05307016	     97.41851698	      0.23700170	      1.06630424	      0.33315934	     -6.81612459	      2.55419568	      3.82012527	      7.22033248	      0.12601857	     27.72012658	     -7.30908388	      0.00000000	    -10.42796945	     -2.90094538	      5.66105473	      0.19899282	      0.00347308	     27.52614269	     -1.34160218	      0.00000000	     -0.02405510	      0.24965333	     -0.35725996	     -0.04467272	      0.33203893	     -0.37958871	     -0.03952012	      0.60700710	     -0.37958871	     -0.02749257	      0.60700710	     -0.31260247	     -0.02233757	      0.50909306	     -0.29027372	     -0.01374508	      0.38671300	     -0.26794497	     -0.17182317	      2.82412837	     -1.98697274	      0.00000000	      0.00000000	     22.96762791	      3.77282048	      4.28695733	     13.45069505	    -10.22723857	     69.74185787	     38.16948897	     40.01991694	      4.69100434	      9.66806841	     10.03716946	    -12.11926211	     54.84337048	     39.06271198	     87.48618650	      0.97479287	     -3.81556135
      0.05000000	      3.44291231	     -7.97170607	     97.15278181	      0.23736079	      1.06625846	      0.33376909	     -6.87932328	      2.46815728	      3.49303115	      7.28610630	      0.12716654	     27.77780761	     -6.59418013	      0.00000000	    -10.56001747	     -2.84490052	      5.67946197	      0.20191316	      0.00352405	     27.39958240	     -1.43637232	      0.00000000	     -0.04033963	      0.24306047	     -0.31722207	     -0.07491473	      0.32327042	     -0.33704845	     -0.06627398	      0.59097723	     -0.33704845	     -0.04610416	      0.59097723	     -0.27756931	     -0.03745938	      0.49564891	     -0.25774293	     -0.02305007	      0.37650067	     -0.23791655	     -0.28814195	      2.74954864	     -1.76429399	      0.00000000	      0.00000000	     22.92065536	      4.14256661	      4.04730622	     13.76994482	    -10.48948045	     69.62588678	     38.57101359	     40.35474092	      4.48528854	      8.76920966	     10.58752816	    -12.38668930	     55.36798401	     39.42378380	     86.62206198	      1.86623724	     -3.23409087
      0.06666667	      3.40204277	     -8.07199990	     96.98377399	      0.23764903	      1.06606345	      0.33433228	     -6.69801480	      2.37601508	      3.68880536	      7.42222982	      0.12954235	     27.97832066	     -6.47936749	      0.00000000	    -10.43122169	     -2.74253350	      5.92911750	      0.20321988	      0.00354686	     27.50195067	     -1.80570779	      0.00000000	     -0.03263018	      0.23110286	     -0.28507204	     -0.06059751	      0.30736680	     -0.30288904	     -0.05360812	      0.56190350	     -0.30288904	     -0.03729303	      0.56190350	     -0.24943803	     -0.03030039	      0.47126495	     -0.23162103	     -0.01864489	      0.35797833	     -0.21380403	     -0.23307412	      2.61428178	     -1.58548514	      0.00000000	      0.00000000	     23.06303028	      4.49164743	      3.78896157	     13.97836872	    -10.73558246	     69.54069669	     38.94781092	     40.89022705	      4.38929849	      7.94971752	     10.86329931	    -12.56735256	     55.09026146	     39.71653591	     86.35740004	      3.54998186	     -2.69518234
      0.08333333	      3.39831426	     -8.31458427	     96.93975582	      0.23789793	      1.06597262	      0.33471852	     -6.33424650	      2.32125949	      3.57110710	      7.59209729	      0.13250709	     28.29054425	     -6.00127633	      0.00000000	    -10.10529271	     -2.69477974	      5.78973975	      0.19507642	      0.00340473	     27.72976872	     -1.57188387	      0.00000000	      0.00874640	      0.22602182	     -0.29124657	      0.01624294	      0.30060902	     -0.30944948	      0.01436946	      0.54954946	     -0.30944948	      0.00999626	      0.54954946	     -0.25484075	      0.00812190	      0.46090370	     -0.23663784	      0.00499769	      0.35010780	     -0.21843492	      0.06247464	      2.55680405	     -1.61982603	      0.00000000	      0.00000000	     22.91746172	      4.55812262	      3.79317681	     14.11086343	    -10.82276821	     69.54937091	     39.05609433	     41.00641899	      4.34903371	      7.84724078	     10.92822181	    -12.67879400	     55.15688424	     39.84453432	     85.08849128	      3.76640921	     -2.37213768
      0.10000000	      3.29808256	     -8.36408926	     97.22707058	      0.23781141	      1.06575871	      0.33536564	     -6.34536822	      2.27644324	      3.88647559	      7.40606651	      0.12926025	     28.44161134	     -6.50132626	      0.00000000	     -9.92701850	     -2.62771057	      6.56935767	      0.19964254	      0.00348442	     28.07943361	     -2.17328529	      0.00000000	     -0.00461411	      0.20624362	     -0.35436603	     -0.00856886	      0.27430401	     -0.37651391	     -0.00758052	      0.50146073	     -0.37651391	     -0.00527347	      0.50146073	     -0.31007028	     -0.00428466	      0.42057198	     -0.28792240	     -0.00263650	      0.31947136	     -0.26577453	     -0.03295813	      2.33306903	     -1.97087758	      0.00000000	      0.00000000	     23.49350480	      5.01935064	      3.66847593	     14.25314075	    -11.02165447	     69.23719119	     39.51911881	     41.38772615	      4.50280805	      7.49874451	     10.93538020	    -12.82585688	     53.68020986	     40.10662329	     85.98112413	      7.26050592	     -1.52011761
      0.11666667	      3.25772663	     -8.43216492	     97.51675563	      0.23770396	      1.06569219	      0.33593701	     -6.25255764	      2.25619596	      3.51295484	      7.40611674	      0.12926112	     28.67936361	     -6.20283348	      0.00000000	     -9.74442798	     -2.62378740	      6.64073425	      0.19769259	      0.00345039	     28.41307975	     -1.83783618	      0.00000000	     -0.00234656	      0.19800769	     -0.41867045	     -0.00435779	      0.26335023	     -0.44483736	     -0.00385516	      0.48143590	     -0.44483736	     -0.00268188	      0.48143590	     -0.36633665	     -0.00217901	      0.40377728	     -0.34016974	     -0.00134082	      0.30671391	     -0.31400284	     -0.01676124	      2.23990259	     -2.32851947	      0.00000000	      0.00000000	     23.79881620	      5.34865216	      3.80574748	     14.30020975	    -11.17738275	     68.84023406	     39.89777096	     40.85427954	      4.47038015	      7.61124474	     10.99865471	    -13.03952159	     53.87160282	     40.44179130	     86.19180613	      7.04605426	     -1.39261383
      0.13333333	      3.22573298	     -8.51586589	     97.67491870	      0.23776747	      1.06558677	      0.33657084	     -6.14018289	      2.21029797	      3.00152298	      7.39435760	      0.12905589	     28.87839025	     -5.59002666	      0.00000000	     -9.57862722	     -2.60499606	      6.42818328	      0.19693318	      0.00343713	     28.57041730	     -1.42459182	      0.00000000	      0.00361049	      0.19105311	     -0.45037198	      0.00670504	      0.25410064	     -0.47852023	      0.00593167	      0.46452654	     -0.47852023	      0.00412643	      0.46452654	     -0.39407548	      0.00335270	      0.38959551	     -0.36592723	      0.00206303	      0.29594127	     -0.33777898	      0.02578935	      2.16123103	     -2.50483383	      0.00000000	      0.00000000	     24.17873793	      5.58163739	      3.86224874	     14.34913677	    -11.35238424	     68.52083377	     40.27666943	     40.53895500	      4.32010287	      7.54127556	     11.00992589	    -13.22304534	     54.18686455	     40.78050806	     85.41249363	      6.71748824	     -1.15807929
      0.15000000	      3.21339040	     -8.54258349	     98.39440267	      0.23712279	      1.06544861	      0.33716430	     -6.13130242	      2.28751538	      2.50764174	      7.36730682	      0.12858376	     28.80526022	     -5.93382952	      0.00000000	     -9.42650572	     -2.71948015	      6.99554833	      0.20123495	      0.00351221	     28.64222450	     -1.19028566	      0.00000000	      0.00695781	      0.18540323	     -0.56398629	      0.01292136	      0.24658630	     -0.59923544	      0.01143099	      0.45078942	     -0.59923544	      0.00795209	      0.45078942	     -0.49348801	      0.00646103	      0.37807427	     -0.45823886	      0.00397569	      0.28718961	     -0.42298972	      0.04969897	      2.09731843	     -3.13672258	      0.00000000	      0.00000000	     24.50985352	      5.80210425	      3.82015813	     14.12987487	    -11.49314318	     67.68368147	     40.76304950	     38.43440867	      4.03160559	      8.36440116	     10.94925657	    -13.30753117	     54.47334482	     40.98425066	     86.70968800	      5.21131607	     -2.23111782
      0.16666667	      3.20164392	     -8.42394925	     98.71705698	      0.23692685	      1.06548985	      0.33766356	     -6.26958956	      2.30991544	      1.81539889	      7.29914769	      0.12739416	     28.77330685	     -5.43177715	      0.00000000	     -9.48829650	     -2.78258735	      6.99573568	      0.20125991	      0.00351265	     28.60973223	     -0.94900837	      0.00000000	     -0.01763459	      0.18382092	     -0.60763064	     -0.03274920	      0.24448182	     -0.64560756	     -0.02897187	      0.44694219	     -0.64560756	     -0.02015457	      0.44694219	     -0.53167681	     -0.01637548	      0.37484762	     -0.49369990	     -0.01007641	      0.28473861	     -0.45572298	     -0.12596212	      2.07941901	     -3.37945934	      0.00000000	      0.00000000	     24.91549640	      6.01035757	      3.78961919	     14.12732580	    -11.62243377	     67.41326827	     41.04776158	     37.60038070	      3.89921021	      8.63187136	     10.81418366	    -13.34899777	     54.47883580	     41.29456099	     85.68795059	      4.46844775	     -2.29293608
